<svg width="785" height="103" viewBox="0 0 785 103" fill="none" xmlns="http://www.w3.org/2000/svg">
<g opacity="0.5" filter="url(#filter0_dd_0_46)">
<mask id="path-1-inside-1_0_46" fill="white">
<path fill-rule="evenodd" clip-rule="evenodd" d="M4 94.9997C4 94.9997 196.477 -117.458 397.059 94.9997C397.059 94.9997 573.327 -118.754 781 94.9997"/>
</mask>
<path fill-rule="evenodd" clip-rule="evenodd" d="M4 94.9997C4 94.9997 196.477 -117.458 397.059 94.9997C397.059 94.9997 573.327 -118.754 781 94.9997" fill="black" fill-opacity="0.01" shape-rendering="crispEdges"/>
<path d="M397.059 94.9997L396.332 95.6862L397.109 96.51L397.83 95.6359L397.059 94.9997ZM4 94.9997C4.7411 95.6711 4.7415 95.6706 4.74263 95.6694C4.74399 95.6679 4.74585 95.6658 4.74856 95.6629C4.75397 95.6569 4.76231 95.6478 4.77356 95.6354C4.79606 95.6108 4.83021 95.5735 4.87593 95.5239C4.96735 95.4246 5.10503 95.2759 5.28825 95.0802C5.6547 94.6888 6.20331 94.1095 6.92846 93.3617C8.37878 91.8661 10.5351 89.6968 13.3525 87.0091C18.9875 81.6336 27.2652 74.1861 37.8255 65.9098C58.9504 49.3537 89.1856 29.4996 125.652 16.2679C162.113 3.03836 204.783 -3.56458 250.812 6.34649C296.836 16.2565 346.302 42.6948 396.332 95.6862L397.059 94.9997L397.786 94.3132C347.524 41.0755 297.712 14.3993 251.233 4.3913C204.759 -5.61558 161.701 1.06011 124.97 14.3878C88.2448 27.7134 57.8244 47.6952 36.5918 64.3357C25.9732 72.6577 17.6466 80.1487 11.972 85.562C9.13457 88.2688 6.95979 90.4565 5.49269 91.9694C4.75913 92.7258 4.20245 93.3136 3.82829 93.7132C3.64121 93.913 3.49975 94.0658 3.40462 94.1691C3.35705 94.2208 3.32107 94.2601 3.29675 94.2867C3.28459 94.3 3.27535 94.3102 3.26904 94.3171C3.26589 94.3206 3.26335 94.3234 3.26177 94.3251C3.25997 94.3271 3.2589 94.3283 4 94.9997ZM397.059 94.9997C397.83 95.6359 397.831 95.6355 397.832 95.6343C397.833 95.6328 397.834 95.6307 397.837 95.6278C397.842 95.6218 397.849 95.6127 397.86 95.6003C397.88 95.5756 397.911 95.5382 397.953 95.4883C398.037 95.3886 398.163 95.2392 398.331 95.0425C398.667 94.6491 399.171 94.0666 399.837 93.3147C401.171 91.8108 403.156 89.6291 405.759 86.926C410.964 81.5195 418.636 74.0289 428.491 65.7045C448.205 49.052 476.632 29.0838 511.509 15.7763C546.377 2.47206 587.68 -4.1711 633.183 5.79917C678.686 15.7693 728.474 42.3711 780.283 95.6965L781 94.9997L781.717 94.3028C729.689 40.7514 679.567 13.9148 633.611 3.84552C587.657 -6.22361 545.954 0.492833 510.796 13.9078C475.646 27.3196 447.026 47.4301 427.2 64.1766C417.285 72.5518 409.563 80.0907 404.318 85.5389C401.695 88.2631 399.691 90.465 398.341 91.9879C397.666 92.7494 397.154 93.3411 396.81 93.7436C396.638 93.9448 396.508 94.0987 396.421 94.2028C396.377 94.2549 396.344 94.2945 396.322 94.3214C396.311 94.3348 396.302 94.3451 396.297 94.3521C396.294 94.3556 396.291 94.3585 396.29 94.3602C396.288 94.3622 396.287 94.3635 397.059 94.9997Z" fill="white" mask="url(#path-1-inside-1_0_46)"/>
</g>
<defs>
<filter id="filter0_dd_0_46" x="0" y="-0.00195312" width="785" height="103.002" filterUnits="userSpaceOnUse" color-interpolation-filters="sRGB">
<feFlood flood-opacity="0" result="BackgroundImageFix"/>
<feColorMatrix in="SourceAlpha" type="matrix" values="0 0 0 0 0 0 0 0 0 0 0 0 0 0 0 0 0 0 127 0" result="hardAlpha"/>
<feOffset dy="4"/>
<feGaussianBlur stdDeviation="2"/>
<feComposite in2="hardAlpha" operator="out"/>
<feColorMatrix type="matrix" values="0 0 0 0 0 0 0 0 0 0 0 0 0 0 0 0 0 0 0.25 0"/>
<feBlend mode="normal" in2="BackgroundImageFix" result="effect1_dropShadow_0_46"/>
<feColorMatrix in="SourceAlpha" type="matrix" values="0 0 0 0 0 0 0 0 0 0 0 0 0 0 0 0 0 0 127 0" result="hardAlpha"/>
<feOffset dy="4"/>
<feGaussianBlur stdDeviation="2"/>
<feComposite in2="hardAlpha" operator="out"/>
<feColorMatrix type="matrix" values="0 0 0 0 0 0 0 0 0 0 0 0 0 0 0 0 0 0 0.25 0"/>
<feBlend mode="normal" in2="effect1_dropShadow_0_46" result="effect2_dropShadow_0_46"/>
<feBlend mode="normal" in="SourceGraphic" in2="effect2_dropShadow_0_46" result="shape"/>
</filter>
</defs>
</svg>
